<svg width="160" height="65" viewBox="0 0 160 65" fill="none" xmlns="http://www.w3.org/2000/svg">
<path d="M20.3206 17.3573C20.4953 19.3223 20.6044 21.2873 20.6481 23.2523C20.7354 25.2172 20.8664 27.1822 21.0411 29.1472C21.1284 30.4135 21.1939 31.6799 21.2376 32.9462C21.3249 34.2125 21.4123 35.4788 21.4996 36.7451C21.5869 38.6228 21.6743 40.4786 21.7616 42.3126C21.8926 44.1029 22.0454 45.915 22.2201 47.749C22.2638 48.0547 22.3293 48.3822 22.4166 48.7315C22.5039 49.0372 22.5694 49.3647 22.6131 49.714C22.6568 50.0197 22.6131 50.3472 22.4821 50.6965C22.3511 51.0458 22.1328 51.3297 21.8271 51.548C21.1721 51.9847 20.4734 51.9192 19.7311 51.3515C19.1635 50.9148 18.7486 50.3035 18.4866 49.5175C18.0936 48.6442 17.788 47.7272 17.5696 46.7665C17.3513 45.7622 17.1548 44.7797 16.9801 43.8191C16.5435 41.0681 16.1941 38.2953 15.9322 35.5006C15.6702 32.706 15.4737 29.9114 15.3427 27.1167C15.299 26.1124 15.2335 25.1081 15.1462 24.1038C15.0588 23.0558 14.9933 22.0514 14.9497 21.0908C14.8187 17.6848 14.7532 14.2789 14.7532 10.8729C14.7532 10.1306 14.775 9.41007 14.8187 8.71141C14.8623 7.96909 14.9278 7.24859 15.0152 6.54993C15.1025 6.11327 15.1025 5.85127 15.0152 5.76394C14.9715 5.63294 14.7532 5.56744 14.3602 5.56744C12.6135 5.61111 10.8669 5.67661 9.12022 5.76394C7.37357 5.85127 5.67059 6.02594 4.01127 6.28793C3.70561 6.3316 3.37811 6.37527 3.02878 6.41893C2.72312 6.41893 2.39562 6.3971 2.04629 6.35344C1.08563 6.13511 0.430639 5.54561 0.0813095 4.58495C-0.180688 3.53696 0.190475 2.68547 1.1948 2.03048C1.63146 1.68115 2.17729 1.46282 2.83228 1.37548C4.66626 0.895157 6.47841 0.56766 8.26873 0.392995C10.1027 0.174664 11.9585 0.0436657 13.8362 0C15.4082 0 16.9801 0.0436657 18.5521 0.130997C20.1241 0.218328 21.6961 0.327494 23.2681 0.458493C25.1894 0.633159 27.0889 0.85149 28.9665 1.11349C30.8878 1.37549 32.7655 1.81215 34.5995 2.42348C34.9051 2.51081 35.189 2.61997 35.451 2.75097C35.7566 2.8383 36.0623 2.9693 36.368 3.14397C37.5469 3.62429 38.0273 4.41029 37.8089 5.50194C37.5906 6.54993 36.8701 7.07393 35.6475 7.07393C34.3811 7.07393 33.1148 7.0521 31.8485 7.00843C30.6258 6.96476 29.3814 6.8556 28.115 6.68093C26.9797 6.50627 25.8226 6.37527 24.6436 6.28793C23.4646 6.15694 22.2856 6.02594 21.1066 5.89494C20.7136 5.80761 20.4734 5.82944 20.3861 5.96044C20.3424 6.04777 20.3206 6.28794 20.3206 6.68093C20.2333 7.55426 20.2114 8.44941 20.2551 9.36641C20.2988 10.2834 20.3206 11.1786 20.3206 12.0519V17.3573Z" fill="#FF4F27"/>
<path d="M38.4823 25.0208C38.5697 24.9771 38.657 24.9334 38.7443 24.8897C38.8753 24.8461 38.9845 24.8024 39.0718 24.7588C40.4692 23.9728 41.8665 23.6671 43.2638 23.8418C44.7048 24.0164 46.0584 24.5404 47.3248 25.4137C48.5037 26.2434 49.4207 27.2477 50.0757 28.4267C50.7307 29.562 51.2111 30.7847 51.5167 32.0947C52.1717 34.802 52.2809 37.4438 51.8442 40.0201C51.4512 42.5964 50.4251 45.0417 48.7657 47.356C47.8924 48.6223 46.8444 49.6703 45.6218 50.5C44.4428 51.286 43.0673 51.81 41.4953 52.072C40.9713 52.1156 40.4255 52.1156 39.8578 52.072C39.3338 52.0283 38.8317 51.9191 38.3513 51.7445C38.133 51.6572 37.9147 51.6135 37.6964 51.6135C37.478 51.5698 37.2379 51.6571 36.9759 51.8755C36.3645 52.3995 35.6877 52.6178 34.9454 52.5305C34.2031 52.4431 33.5481 52.1375 32.9804 51.6135C32.4127 51.0458 32.1071 50.3472 32.0634 49.5175C31.9761 48.1202 31.9542 46.7447 31.9979 45.391C32.0416 44.0374 32.1289 42.6837 32.2599 41.3301C32.4346 39.9328 32.5001 38.5791 32.4564 37.2691C32.4564 35.9155 32.4346 34.5618 32.3909 33.2082C32.3909 30.7629 32.3472 28.3612 32.2599 26.0032C32.2162 23.6453 32.1507 21.2655 32.0634 18.8638C32.0197 17.2045 31.9761 15.567 31.9324 13.9514C31.9324 12.3357 32.0197 10.6982 32.1944 9.03891C32.2817 7.99092 32.4127 6.94293 32.5874 5.89494C32.7621 4.80328 33.0459 3.77713 33.4389 2.81647C33.7446 2.07414 34.2686 1.55015 35.0109 1.24449C35.6222 0.938822 36.1899 0.938822 36.7139 1.24449C37.2379 1.55015 37.4999 2.05231 37.4999 2.75097C37.6309 6.28794 37.74 9.84673 37.8274 13.4274C37.9584 16.9643 38.0675 20.5013 38.1549 24.0383C38.2422 24.2129 38.264 24.3658 38.2203 24.4968C38.2203 24.6278 38.3077 24.8024 38.4823 25.0208ZM38.5478 40.9371H38.6788V44.0811C38.6788 44.9544 38.8098 45.522 39.0718 45.784C39.3775 46.0024 39.967 46.0242 40.8403 45.8495C41.277 45.8059 41.67 45.6749 42.0193 45.4565C42.4123 45.1945 42.7616 44.9107 43.0673 44.6051C43.9843 43.6881 44.6393 42.6401 45.0323 41.4611C45.3379 40.5878 45.5781 39.7144 45.7528 38.8411C45.9274 37.9241 45.9929 36.9853 45.9493 36.0246C45.9493 34.5837 45.6218 33.2082 44.9668 31.8982C44.7921 31.5489 44.5956 31.2432 44.3773 30.9812C44.159 30.7192 43.897 30.5009 43.5913 30.3262C42.6306 29.7149 41.8665 29.8459 41.2988 30.7192C40.6002 31.9855 39.9233 33.2955 39.2683 34.6492C38.657 35.9591 38.395 37.4438 38.4823 39.1031C38.526 39.4088 38.5478 39.7144 38.5478 40.0201C38.5478 40.3258 38.5478 40.6314 38.5478 40.9371Z" fill="#FF4F27"/>
<path d="M61.0018 20.0428C59.7355 20.6105 58.6439 20.4358 57.7269 19.5188C57.4212 19.1695 57.2247 18.711 57.1374 18.1433C57.05 17.5757 57.1156 17.0298 57.3339 16.5058C57.5959 15.9382 58.0325 15.4797 58.6439 15.1303C59.2552 14.7374 59.8665 14.5409 60.4778 14.5409C61.7442 14.5409 62.5957 15.1303 63.0323 16.3093C63.2507 16.8333 63.2725 17.3792 63.0978 17.9468C62.9668 18.4708 62.6612 18.9293 62.1808 19.3223C62.0062 19.497 61.8097 19.6498 61.5913 19.7808C61.4167 19.8681 61.2202 19.9555 61.0018 20.0428ZM63.6218 47.225C63.7965 48.142 63.5126 48.797 62.7703 49.19C61.9843 49.583 61.1983 49.4957 60.4123 48.928C60.063 48.6223 59.801 48.273 59.6264 47.88C59.4517 47.487 59.277 47.0722 59.1024 46.6355C58.9714 46.0242 58.8404 45.391 58.7094 44.7361C58.622 44.0811 58.5347 43.4479 58.4474 42.8366C58.1854 40.6533 57.967 38.4699 57.7924 36.2866C57.6614 34.0597 57.6832 31.8545 57.8579 29.6712C57.9015 29.1909 57.967 28.7105 58.0544 28.2302C58.1417 27.7062 58.3382 27.2259 58.6439 26.7892C58.8622 26.3526 59.146 26.0032 59.4954 25.7412C59.8884 25.4792 60.3469 25.3482 60.8708 25.3482C61.8752 25.3919 62.5957 25.9159 63.0323 26.9202C63.4253 27.7062 63.6218 28.5577 63.6218 29.4747V38.5136C63.5781 39.0376 63.5345 39.6708 63.4908 40.4131C63.4471 41.1554 63.4253 41.9632 63.4253 42.8366C63.4253 43.5352 63.4253 44.2557 63.4253 44.9981C63.469 45.7404 63.5345 46.4827 63.6218 47.225Z" fill="#FF4F27"/>
<path d="M74.8063 46.177C74.8063 46.7884 74.8282 47.4215 74.8718 48.0765C74.9155 48.7315 74.8937 49.4083 74.8063 50.107C74.8063 50.2817 74.8063 50.5 74.8063 50.762C74.8063 50.9803 74.7845 51.2205 74.7408 51.4825C74.6098 52.3558 74.1513 52.8798 73.3653 53.0545C72.492 53.0981 71.7934 52.8361 71.2694 52.2685C70.9637 51.9191 70.7235 51.5262 70.5489 51.0895C70.4179 50.6528 70.2651 50.2162 70.0904 49.7795C69.9157 48.9935 69.7629 48.2075 69.6319 47.4215C69.5446 46.6355 69.4791 45.8495 69.4354 45.0636C69.1734 42.6619 68.9987 40.2603 68.9114 37.8586C68.8677 35.457 68.8022 33.0553 68.7149 30.6537C68.6712 27.2041 68.6276 23.7763 68.5839 20.3703C68.5839 16.9643 68.6057 13.5365 68.6494 10.0869C68.6494 9.78123 68.6494 9.4974 68.6494 9.23541C68.6931 8.92974 68.7586 8.62408 68.8459 8.31841C69.0642 7.70709 69.4136 7.20493 69.8939 6.81193C70.3742 6.37527 70.9419 6.15694 71.5969 6.15694C72.9505 6.15694 73.8239 6.87743 74.2169 8.31841C74.3478 8.71141 74.4133 9.10441 74.4133 9.4974C74.588 12.3357 74.6972 15.174 74.7408 18.0123C74.8282 20.8506 74.8937 23.6889 74.9373 26.5272C74.9373 26.8329 74.9373 27.5534 74.9373 28.6887C74.9373 29.824 74.9373 31.1777 74.9373 32.7497C74.9373 34.278 74.9155 35.8936 74.8718 37.5966C74.8718 39.2996 74.8718 40.9153 74.8718 42.4436C74.8718 43.9282 74.85 45.1727 74.8063 46.177Z" fill="#FF4F27"/>
<path d="M83.7731 20.0428C82.5068 20.6105 81.4151 20.4358 80.4981 19.5188C80.1925 19.1695 79.996 18.711 79.9086 18.1433C79.8213 17.5757 79.8868 17.0298 80.1051 16.5058C80.3671 15.9382 80.8038 15.4797 81.4151 15.1303C82.0265 14.7374 82.6378 14.5409 83.2491 14.5409C84.5154 14.5409 85.3669 15.1303 85.8036 16.3093C86.0219 16.8333 86.0437 17.3792 85.8691 17.9468C85.7381 18.4708 85.4324 18.9293 84.9521 19.3223C84.7774 19.497 84.5809 19.6498 84.3626 19.7808C84.1879 19.8681 83.9914 19.9555 83.7731 20.0428ZM86.3931 47.225C86.5677 48.142 86.2839 48.797 85.5416 49.19C84.7556 49.583 83.9696 49.4957 83.1836 48.928C82.8343 48.6223 82.5723 48.273 82.3976 47.88C82.2229 47.487 82.0483 47.0722 81.8736 46.6355C81.7426 46.0242 81.6116 45.391 81.4806 44.7361C81.3933 44.0811 81.306 43.4479 81.2186 42.8366C80.9566 40.6533 80.7383 38.4699 80.5636 36.2866C80.4326 34.0597 80.4545 31.8545 80.6291 29.6712C80.6728 29.1909 80.7383 28.7105 80.8256 28.2302C80.913 27.7062 81.1095 27.2259 81.4151 26.7892C81.6335 26.3526 81.9173 26.0032 82.2666 25.7412C82.6596 25.4792 83.1181 25.3482 83.6421 25.3482C84.6464 25.3919 85.3669 25.9159 85.8036 26.9202C86.1966 27.7062 86.3931 28.5577 86.3931 29.4747V38.5136C86.3494 39.0376 86.3057 39.6708 86.2621 40.4131C86.2184 41.1554 86.1966 41.9632 86.1966 42.8366C86.1966 43.5352 86.1966 44.2557 86.1966 44.9981C86.2402 45.7404 86.3057 46.4827 86.3931 47.225Z" fill="#FF4F27"/>
<path d="M104.39 35.0421C103.604 35.7408 103.036 36.4613 102.687 37.2036C101.77 38.8193 101.027 40.5223 100.46 42.3126C99.8919 44.1029 99.4552 45.9369 99.1496 47.8145C99.1059 48.2512 99.0186 48.6878 98.8876 49.1245C98.7566 49.5612 98.5819 49.9542 98.3636 50.3035C97.7086 51.3952 96.8353 51.8755 95.7436 51.7445C95.176 51.7445 94.6956 51.5917 94.3026 51.286C93.9096 50.9803 93.5603 50.5873 93.2546 50.107C93.08 49.714 92.949 49.2992 92.8616 48.8625C92.818 48.4259 92.7525 47.9892 92.6651 47.5525C92.4468 45.8059 92.2067 44.0592 91.9447 42.3126C91.7263 40.5223 91.5735 38.7538 91.4862 37.0071C91.3988 35.8281 91.3988 34.6492 91.4862 33.4702C91.5735 32.2912 91.7045 31.1122 91.8792 29.9332C91.8792 29.7149 91.9228 29.5184 92.0101 29.3437C92.0975 29.1254 92.163 28.9289 92.2066 28.7542C92.5996 27.6626 93.3201 27.1822 94.3681 27.3132C94.8048 27.3569 95.1978 27.5534 95.5471 27.9027C95.8964 28.252 96.0929 28.6669 96.1366 29.1472C96.2676 30.1952 96.3768 31.2214 96.4641 32.2257C96.5951 33.23 96.7479 34.2343 96.9226 35.2386C96.9663 35.4133 96.9881 35.6316 96.9881 35.8936C96.9881 36.112 97.0536 36.3303 97.1846 36.5486C97.4029 36.4613 97.5339 36.3521 97.5776 36.2211C97.6213 36.0465 97.6649 35.8936 97.7086 35.7626C98.1453 34.8893 98.5819 34.0378 99.0186 33.2082C99.4552 32.3348 99.9574 31.5488 100.525 30.8502C100.787 30.5009 101.049 30.1734 101.311 29.8677C101.573 29.5184 101.879 29.2127 102.228 28.9507C103.363 28.0337 104.586 27.6844 105.896 27.9027C107.206 28.0774 108.276 28.7979 109.105 30.0642C109.498 30.7629 109.804 31.5052 110.022 32.2912C110.241 33.0335 110.394 33.7977 110.481 34.5837C110.699 35.8936 110.874 37.2255 111.005 38.5791C111.18 39.8891 111.354 41.1991 111.529 42.5091C111.616 43.2951 111.725 44.0811 111.856 44.8671C112.031 45.6094 112.162 46.3735 112.249 47.1595C112.337 47.4652 112.446 47.7272 112.577 47.9455C112.708 48.1639 112.926 48.3822 113.232 48.6005C114.149 49.0808 114.433 49.845 114.083 50.893C113.69 51.9846 113.014 52.6615 112.053 52.9235C111.092 53.1855 110.175 52.9671 109.302 52.2685C108.909 51.9191 108.581 51.548 108.319 51.155C108.057 50.762 107.817 50.3472 107.599 49.9105C106.9 48.6442 106.376 47.356 106.027 46.046C105.678 44.7361 105.416 43.3606 105.241 41.9196C105.11 40.9153 105.001 39.8891 104.914 38.8411C104.826 37.7931 104.673 36.767 104.455 35.7626C104.455 35.6753 104.433 35.588 104.39 35.5006C104.39 35.3696 104.39 35.2168 104.39 35.0421Z" fill="#FF4F27"/>
<path d="M129.209 42.4436C129.035 42.8366 128.838 43.2296 128.62 43.6226C128.445 44.0156 128.249 44.4086 128.03 44.8016C127.812 45.3255 127.528 45.8495 127.179 46.3735C126.829 46.8975 126.436 47.356 126 47.749C124.908 48.7533 123.707 49.2337 122.397 49.19C121.087 49.1463 119.93 48.5569 118.926 47.4215C118.358 46.8102 117.9 46.1115 117.55 45.3255C117.245 44.4959 116.983 43.6662 116.764 42.8366C115.76 39.0376 115.956 35.3041 117.354 31.6362C117.79 30.4572 118.336 29.3437 118.991 28.2957C119.69 27.2477 120.585 26.3526 121.677 25.6102C122.768 24.8679 123.882 24.4094 125.017 24.2348C126.153 24.0164 127.332 24.1474 128.554 24.6278C128.904 24.7151 129.209 24.7806 129.471 24.8242C129.777 24.8679 130.083 24.8024 130.388 24.6278C131.261 24.2784 132.113 24.3658 132.943 24.8897C133.816 25.3701 134.34 26.0687 134.515 26.9857C134.777 28.1211 134.951 29.2564 135.039 30.3917C135.126 31.527 135.191 32.6623 135.235 33.7977C135.366 36.243 135.453 38.7101 135.497 41.1991C135.541 43.6444 135.519 46.0897 135.432 48.535C135.388 49.714 135.301 50.9148 135.17 52.1375C135.082 53.3165 134.842 54.4955 134.449 55.6744C134.056 57.0281 133.51 58.2726 132.812 59.4079C132.157 60.5869 131.327 61.6349 130.323 62.5519C129.537 63.2505 128.642 63.709 127.637 63.9274C126.371 64.1894 125.148 63.9055 123.969 63.0759C122.834 62.2462 122.157 61.1982 121.939 59.9319C121.851 59.1459 122.092 58.5782 122.659 58.2289C122.878 58.0979 123.118 58.0106 123.38 57.9669C123.685 57.9233 123.991 57.9888 124.297 58.1634C124.559 58.2944 124.777 58.4254 124.952 58.5564C125.126 58.7311 125.301 58.9276 125.476 59.1459C125.869 59.4516 126.262 59.3861 126.655 58.9494C127.484 57.7704 128.052 56.5259 128.358 55.2159C128.838 53.1636 129.122 51.0677 129.209 48.928C129.297 46.7447 129.297 44.5832 129.209 42.4436ZM123.249 42.5091C123.685 42.1597 124.013 41.7667 124.231 41.3301C124.493 40.8498 124.755 40.3258 125.017 39.7581C125.541 38.4481 125.978 37.0945 126.327 35.6971C126.72 34.2562 127.026 32.7933 127.244 31.3087C127.375 30.3044 126.96 29.955 126 30.2607C125.476 30.4354 125.017 30.7192 124.624 31.1122C124.275 31.5052 123.991 31.8982 123.773 32.2912C123.554 32.6842 123.336 33.1208 123.118 33.6012C122.681 34.6928 122.441 35.8281 122.397 37.0071C122.354 38.1861 122.397 39.3651 122.528 40.5441C122.616 40.8934 122.681 41.2428 122.725 41.5921C122.812 41.8977 122.987 42.2034 123.249 42.5091Z" fill="#FF4F27"/>
<path d="M160 37.9241C159.782 42.2034 158.21 46.1989 155.284 49.9105C154.76 50.6092 154.149 51.2205 153.45 51.7445C152.751 52.2248 151.965 52.596 151.092 52.858C149.389 53.251 147.752 53.0545 146.18 52.2685C145.612 51.9191 145.066 51.5043 144.542 51.024C144.018 50.5 143.582 49.9542 143.232 49.3865C142.097 47.5962 141.333 45.7622 140.94 43.8846C140.547 41.9632 140.416 39.9983 140.547 37.9896C140.721 36.1993 141.114 34.4963 141.726 32.8807C142.337 31.2214 143.232 29.7149 144.411 28.3612C145.415 27.2696 146.616 26.5927 148.014 26.3307C148.669 26.1561 149.258 26.1561 149.782 26.3307C150.306 26.4617 150.808 26.7237 151.289 27.1167C151.42 27.2477 151.572 27.3351 151.747 27.3787C151.922 27.3787 152.118 27.3787 152.337 27.3787C153.516 27.2477 154.564 27.4224 155.481 27.9027C156.441 28.383 157.271 29.1035 157.97 30.0642C158.756 31.1559 159.28 32.3348 159.542 33.6012C159.847 34.8238 160 36.2648 160 37.9241ZM150.699 33.0117C150.219 33.0117 149.717 33.0772 149.193 33.2082C148.756 33.2082 148.428 33.3173 148.21 33.5357C147.992 33.754 147.795 34.0597 147.621 34.4527C147.009 36.0683 146.682 37.684 146.638 39.2996C146.638 40.9153 146.878 42.5527 147.359 44.2121C147.621 44.9107 148.035 45.6312 148.603 46.3735C148.909 46.6792 149.127 46.8539 149.258 46.8975C149.433 46.8975 149.673 46.7447 149.979 46.439C150.372 46.046 150.743 45.653 151.092 45.26C151.485 44.8234 151.813 44.3649 152.075 43.8846C152.293 43.3606 152.511 42.8147 152.73 42.2471C152.992 41.6794 153.188 41.1118 153.319 40.5441C153.537 39.7144 153.712 38.8848 153.843 38.0551C153.974 37.1818 153.93 36.3085 153.712 35.4351C153.494 34.5182 153.166 33.885 152.73 33.5357C152.293 33.1863 151.616 33.0117 150.699 33.0117Z" fill="#FF4F27"/>
</svg>
