<svg width="32" height="32" viewBox="0 0 32 32" fill="none" xmlns="http://www.w3.org/2000/svg">
<g opacity="0.5">
<path d="M14.8293 23.9309C10.7741 23.3621 8.10463 20.8037 8.64942 16.9199C8.70927 16.4932 8.78988 16.1217 8.89013 15.7859C9.13826 14.9549 10.022 14.55 10.8809 14.6704L11.4049 14.7439C12.5152 14.8997 13.1654 16.0718 13.0096 17.1821C12.7412 19.0954 13.5765 20.4065 15.2899 20.6468C17.0319 20.8912 18.1917 19.8891 18.452 18.0329C18.6844 16.3766 17.8702 15.3305 16.9578 14.1543C16.065 12.9951 15.0268 11.736 14.7236 9.89924C14.5272 8.71003 15.6824 7.86034 16.8761 8.02778C18.0544 8.19306 18.8772 9.32899 19.3924 10.4015C19.7473 11.1402 20.2869 11.8476 20.8484 12.5743C22.0309 14.1088 23.2384 15.8797 22.8579 18.5926C22.3251 22.3908 19.1414 24.5358 14.8293 23.9309Z" fill="#F24822"/>
</g>
</svg>
