<svg width="33" height="32" viewBox="0 0 33 32" fill="none" xmlns="http://www.w3.org/2000/svg">
<g opacity="0.5">
<path d="M3.70256 5.81563L1.9621 6.83417C1.74537 6.75281 1.51699 6.62142 1.27695 6.44001C1.03692 6.25859 0.870291 5.96779 0.777064 5.56759C0.602265 4.81721 0.936383 4.18561 1.77942 3.67279L3.71441 2.4705L4.4085 2.30881C4.94627 2.18353 5.4079 2.24081 5.79339 2.48063C6.17888 2.72045 6.43426 3.10925 6.55953 3.64702L8.8363 13.4206C8.70456 13.4777 8.50549 13.557 8.23909 13.6587C7.98812 13.7699 7.72506 13.8575 7.44992 13.9216C7.17478 13.9857 6.92029 14.0252 6.68644 14.0401C6.46509 14.0521 6.26627 14.0193 6.08997 13.9417C5.91368 13.8641 5.75991 13.7417 5.62867 13.5745C5.50702 13.3919 5.40977 13.1443 5.33694 12.8316L3.70256 5.81563Z" fill="#F24822"/>
<path d="M16.425 7.40677C17.3442 7.51764 18.144 7.7368 18.8243 8.06427C19.5066 8.37561 20.0734 8.763 20.5247 9.22645C20.976 9.68989 21.2976 10.2113 21.4895 10.7907C21.6814 11.3701 21.7394 11.9743 21.6635 12.6032C21.4593 14.2964 20.3053 15.7933 18.2016 17.0938L14.7265 19.2515L20.5318 19.9517C20.6072 20.1407 20.6687 20.3772 20.7162 20.6611C20.7799 20.9469 20.7923 21.251 20.7534 21.5736C20.6834 22.1541 20.5038 22.5578 20.2147 22.7847C19.9275 22.9955 19.5743 23.0756 19.155 23.025L10.7614 22.0127C10.4358 21.728 10.1905 21.3876 10.0256 20.9914C9.8788 20.581 9.8365 20.1178 9.89874 19.6018C9.96487 19.0535 10.1332 18.6075 10.4037 18.2639C10.6761 17.9041 10.963 17.6278 11.2644 17.4351L14.9467 14.9834C15.4088 14.6792 15.7934 14.4066 16.1006 14.1655C16.4098 13.9083 16.6586 13.6765 16.8471 13.4702C17.0517 13.2658 17.198 13.0708 17.2858 12.8851C17.3898 12.7013 17.4525 12.5207 17.4738 12.3433C17.5283 11.8918 17.3695 11.5127 16.9975 11.206C16.6416 10.9013 16.1734 10.714 15.5928 10.644C14.9478 10.5662 14.3546 10.601 13.8133 10.7484C13.29 10.8816 12.8455 11.0407 12.4796 11.2256C12.2288 10.999 12.0322 10.7299 11.8898 10.4182C11.7475 10.1066 11.6996 9.75722 11.7463 9.37019C11.8474 8.53164 12.3174 7.95844 13.1562 7.65059C13.9969 7.32662 15.0865 7.24534 16.425 7.40677Z" fill="#F24822"/>
<path d="M27.2816 16C28.7213 16 29.8168 16.3005 30.568 16.9014C31.3192 17.4898 31.6947 18.2848 31.6947 19.2864C31.6947 19.8873 31.532 20.4006 31.2065 20.8263C30.8935 21.2394 30.5179 21.5524 30.0797 21.7653C30.3426 21.8654 30.5868 21.9906 30.8121 22.1408C31.0375 22.2911 31.2378 22.4789 31.4131 22.7042C31.5883 22.9296 31.726 23.1925 31.8262 23.493C31.9264 23.7934 31.9764 24.144 31.9764 24.5446C31.9764 25.0829 31.8575 25.5649 31.6196 25.9906C31.3943 26.4163 31.075 26.7793 30.6619 27.0798C30.2487 27.3803 29.7542 27.6056 29.1783 27.7559C28.6149 27.9186 27.9952 28 27.3192 28C26.0171 28 25.0343 27.8185 24.3708 27.4554C23.7073 27.0923 23.3755 26.6291 23.3755 26.0657C23.3755 25.7277 23.4569 25.4397 23.6196 25.2019C23.7824 24.9515 23.9827 24.7574 24.2206 24.6197C24.471 24.795 24.8027 24.9828 25.2159 25.1831C25.6415 25.3709 26.1924 25.4648 26.8685 25.4648C27.507 25.4648 27.9764 25.3521 28.2769 25.1268C28.5899 24.9014 28.7464 24.6072 28.7464 24.2441C28.7464 23.8811 28.6212 23.6056 28.3708 23.4178C28.1329 23.23 27.7135 23.1362 27.1126 23.1362H25.3473C25.2597 22.9984 25.1846 22.8294 25.122 22.6291C25.0594 22.4288 25.0281 22.1909 25.0281 21.9155C25.0281 21.6275 25.0531 21.3834 25.1032 21.1831C25.1658 20.9703 25.2472 20.795 25.3473 20.6573H27.1126C28.014 20.6573 28.4647 20.313 28.4647 19.6244C28.4647 19.2989 28.3207 19.036 28.0328 18.8357C27.7448 18.6354 27.3129 18.5352 26.737 18.5352C26.2237 18.5352 25.773 18.5978 25.3849 18.723C24.9968 18.8357 24.6775 18.9797 24.4271 19.1549C24.2143 19.0047 24.039 18.8232 23.9013 18.6103C23.7636 18.385 23.6947 18.1221 23.6947 17.8216C23.6947 17.1956 24.0203 16.7387 24.6713 16.4507C25.3223 16.1502 26.1924 16 27.2816 16Z" fill="#F24822"/>
</g>
</svg>
