<svg width="32" height="32" viewBox="0 0 32 32" fill="none" xmlns="http://www.w3.org/2000/svg">
<g opacity="0.5">
<path d="M18.9415 5C13.9893 5 9.97522 9.01411 9.97522 13.9667C9.97522 18.8804 13.9282 22.8687 18.827 22.9302V26.7448L24.9538 20.6184C26.7683 18.9777 27.9086 16.6052 27.9086 13.9667C27.9077 9.01411 23.8931 5 18.9415 5Z" fill="#F24822"/>
<path d="M11.4214 22.6312V21.5429L10.5277 21.532C7.97653 21.5004 5.90138 19.399 5.90138 16.8473C5.90138 14.7455 7.2919 12.9626 9.20099 12.3703C9.31185 11.6925 9.4924 11.0377 9.73448 10.4133C6.55523 10.8327 4.09138 13.5545 4.09138 16.8469C4.09138 20.0804 6.49641 22.7932 9.61141 23.2678V27L14.078 22.5334C13.5436 22.2275 13.0409 21.8746 12.5744 21.4782L11.4214 22.6312Z" fill="#F24822"/>
</g>
</svg>
